@startuml
skin rose

state "Nouveau" as carteNew
state "Incomplet" as carteNotFull
state "Complet" as carteFull
state "Date décalée" as carteDates
state "Annulé" as carteCancel
state "Quantités réelles ajustées" as carteQuant : exit/ ajouter une remarque
state "Plats infaisables" as carteDel

state cAdaptation <<choice>>
state cCancel <<choice>>
state c3 <<choice>>

[*] -> carteNew
carteNew -> carteNotFull : Choix des plats à préparer \n plusieurs semaines à l'avance
carteNotFull -> carteFull : Complétion de l'ordre de préparations

carteFull --> cAdaptation : Vérification du stock
cAdaptation -> carteDates : [Stock insuffisant] / Décalage de la date de production
carteDates -up> carteFull : Arrivée du stock

cAdaptation --> c3 : [Stock insuffisant AND date inajustable] / \nPossibilité de remplacement ?
c3 --> carteDel : [Non] / Suppression des \nplats infaisables
c3 -up> carteFull : [Oui] / Remplacement des \nplats infaisables

carteDel --> cCancel : L'ordre est-il vide ?

cCancel --> carteCancel : [Oui] / Annulation de l'ordre
cCancel -left> carteFull : [Non]

carteCancel -> [*]

cAdaptation -left-> carteQuant : [Stock suffisant] / \nAjustement des quantités produites

carteQuant -left-> [*]

@enduml
